<svg width="128" height="128" viewBox="0 0 400 400" fill="none" xmlns="http://www.w3.org/2000/svg">
  <path d="M308.78 0H91.2356C40.8176 0 0 40.8 0 91.2V308.8C0 359.2 40.8176 400 91.2356 400H308.764C359.182 400 400 359.2 400 308.8V91.2C400 40.96 359.022 0 308.764 0H308.78Z" fill="url(#paint0_linear_128)"/>
  <path d="M266.571 162.352V128.592L167.207 143.792C195.208 137.872 211.208 115.472 211.208 93.072V79.312H160.966V144.912L133.285 149.072V182.832L160.966 178.672V194.352L133.445 198.512V230.832L160.966 226.672V265.392C162.566 299.152 184.967 319.312 221.449 319.312C234.409 319.312 247.53 316.592 259.53 311.472L259.85 311.312V269.072L259.21 269.392C252.17 272.912 244.17 274.672 236.329 274.672C219.369 274.672 208.648 271.952 208.648 258.192V219.312L266.73 210.352V178.032L208.648 186.992V171.472L266.571 162.352Z" fill="#131C26"/>
  <defs>
    <linearGradient id="paint0_linear_128" x1="0" y1="200" x2="400" y2="200" gradientUnits="userSpaceOnUse">
      <stop stop-color="#3BFF9D"/>
      <stop offset="1" stop-color="#3BFFC8"/>
    </linearGradient>
  </defs>
</svg>
