<svg width="192" height="128" viewBox="0 -64 500 333" fill="none" xmlns="http://www.w3.org/2000/svg">
  <path d="M460.738 0H39.2616C17.5644 0 0 17.5862 0 39.3103V160.69C0 182.414 17.5644 200 39.2616 200H460.738C482.436 200 500 182.414 500 160.69V39.3103C500 17.6552 482.367 0 460.738 0Z" fill="url(#paint_tabby_centered)"/>
  <path fill-rule="evenodd" clip-rule="evenodd" d="M294.242 46.4622L315.962 43.0408V91.9376C316.792 74.8348 327.513 64.6972 345.014 64.6972C365.419 64.6972 377.662 80.4898 377.593 106.903C377.593 133.316 365.419 149.108 344.944 149.108C327.444 149.108 316.723 138.971 315.892 121.73V147.522H294.242V46.4622ZM355.458 106.903C355.458 91.1791 347.85 81.8001 335.122 81.8001C328.966 81.8001 323.778 84.2138 320.181 88.7653C316.653 93.179 314.786 99.4546 314.786 106.903C314.786 122.075 322.74 131.867 335.122 131.867C347.85 131.867 355.458 122.557 355.458 106.903Z" fill="#131C26"/>
  <path fill-rule="evenodd" clip-rule="evenodd" d="M224.171 42.5062L202.452 45.9289V147.522H224.171V121.73C225.001 138.971 235.723 149.108 253.223 149.108C273.698 149.108 285.872 133.316 285.872 106.903C285.872 80.4898 273.698 64.6972 253.223 64.6972C235.723 64.6972 225.001 74.8348 224.171 91.9376V42.5062ZM263.737 106.903C263.737 91.1791 256.129 81.8001 243.401 81.8001C237.245 81.8001 232.057 84.2138 228.46 88.7653C224.932 93.179 223.065 99.4546 223.065 106.903C223.065 122.075 231.019 131.867 243.401 131.867C256.129 131.867 263.737 122.557 263.737 106.903Z" fill="#131C26"/>
  <path d="M461.705 66.2144L433.248 173.873H411.598L418.681 147.384H398.898L377.662 66.2833H400.835L419.234 145.453L439.986 66.2833V66.2144H461.705Z" fill="#131C26"/>
  <path d="M55.17 69.0986L99.9904 62.0336V77.0553L73.3781 81.2502V88.6609L99.9904 84.466V99.4877L73.3781 103.683V119.313C73.3781 133.036 90.2279 130.533 96.758 126.281V145.522C91.5123 148.137 85.0724 149.177 79.2577 149.177C62.5874 149.177 51.6583 140.247 51.6583 124.626V107.106L39 109.102V94.0799L51.6583 92.0846V84.6739L39 86.6692V71.6475L51.6583 69.6522V39.8015H74.6232V46.1461C74.6232 56.1716 67.5488 66.1972 55.17 69.0986Z" fill="#131C26"/>
  <path fill-rule="evenodd" clip-rule="evenodd" d="M168.212 69.8005L189.932 66.4902V147.522H168.212V121.73C167.382 138.902 156.66 149.108 139.16 149.108C129.13 149.108 120.83 145.246 115.227 137.936C109.624 130.626 106.649 119.937 106.649 106.903C106.649 93.8686 109.624 83.1793 115.227 75.8692C120.83 68.5591 129.13 64.6972 139.16 64.6972C156.66 64.6972 167.382 74.8348 168.212 91.9376V69.8005ZM169.388 106.903C169.388 99.5236 167.52 93.248 163.992 88.7653C160.396 84.2138 155.208 81.8001 149.051 81.8001C136.324 81.8001 128.715 91.1791 128.715 106.903C128.715 122.626 136.324 131.867 149.051 131.867C161.433 131.867 169.388 122.075 169.388 106.903Z" fill="#131C26"/>
  <defs>
    <linearGradient id="paint_tabby_centered" x1="0" y1="100" x2="500" y2="100" gradientUnits="userSpaceOnUse">
      <stop stop-color="#3BFF9D"/>
      <stop offset="1" stop-color="#3BFFC8"/>
    </linearGradient>
  </defs>
</svg>
